<svg width="24" height="24" viewBox="0 0 24 24" xmlns="http://www.w3.org/2000/svg">
  <path
    d="M0.949997 20V17.65C0.949997 17.0667 1.1 16.5375 1.4 16.0625C1.7 15.5875 2.11666 15.2333 2.65 15C3.86666 14.4667 4.9625 14.0833 5.9375 13.85C6.9125 13.6167 7.91666 13.5 8.95 13.5C9.98333 13.5 10.9833 13.6167 11.95 13.85C12.9167 14.0833 14.0083 14.4667 15.225 15C15.7583 15.2333 16.1792 15.5875 16.4875 16.0625C16.7958 16.5375 16.95 17.0667 16.95 17.65V20H0.949997ZM18.45 20V17.65C18.45 16.6 18.1833 15.7375 17.65 15.0625C17.1167 14.3875 16.4167 13.8417 15.55 13.425C16.7 13.5583 17.7833 13.7542 18.8 14.0125C19.8167 14.2708 20.6417 14.5667 21.275 14.9C21.825 15.2167 22.2583 15.6083 22.575 16.075C22.8917 16.5417 23.05 17.0667 23.05 17.65V20H18.45ZM8.95 11.975C7.85 11.975 6.95 11.625 6.25 10.925C5.55 10.225 5.2 9.325 5.2 8.225C5.2 7.125 5.55 6.225 6.25 5.525C6.95 4.825 7.85 4.475 8.95 4.475C10.05 4.475 10.95 4.825 11.65 5.525C12.35 6.225 12.7 7.125 12.7 8.225C12.7 9.325 12.35 10.225 11.65 10.925C10.95 11.625 10.05 11.975 8.95 11.975ZM17.95 8.225C17.95 9.325 17.6 10.225 16.9 10.925C16.2 11.625 15.3 11.975 14.2 11.975C14.0167 11.975 13.8125 11.9625 13.5875 11.9375C13.3625 11.9125 13.1583 11.8667 12.975 11.8C13.375 11.3833 13.6792 10.8708 13.8875 10.2625C14.0958 9.65417 14.2 8.975 14.2 8.225C14.2 7.475 14.0958 6.8125 13.8875 6.2375C13.6792 5.6625 13.375 5.13333 12.975 4.65C13.1583 4.6 13.3625 4.55833 13.5875 4.525C13.8125 4.49167 14.0167 4.475 14.2 4.475C15.3 4.475 16.2 4.825 16.9 5.525C17.6 6.225 17.95 7.125 17.95 8.225ZM2.45 18.5H15.45V17.65C15.45 17.3833 15.3708 17.125 15.2125 16.875C15.0542 16.625 14.8583 16.45 14.625 16.35C13.425 15.8167 12.4167 15.4583 11.6 15.275C10.7833 15.0917 9.9 15 8.95 15C8 15 7.1125 15.0917 6.2875 15.275C5.4625 15.4583 4.45 15.8167 3.25 16.35C3.01666 16.45 2.825 16.625 2.675 16.875C2.525 17.125 2.45 17.3833 2.45 17.65V18.5ZM8.95 10.475C9.6 10.475 10.1375 10.2625 10.5625 9.8375C10.9875 9.4125 11.2 8.875 11.2 8.225C11.2 7.575 10.9875 7.0375 10.5625 6.6125C10.1375 6.1875 9.6 5.975 8.95 5.975C8.3 5.975 7.7625 6.1875 7.3375 6.6125C6.9125 7.0375 6.7 7.575 6.7 8.225C6.7 8.875 6.9125 9.4125 7.3375 9.8375C7.7625 10.2625 8.3 10.475 8.95 10.475Z" />
</svg>