<svg width="40" height="40" viewBox="0 0 40 40" fill="none" xmlns="http://www.w3.org/2000/svg">
<path d="M20 35C15.8333 35 12.2917 33.5417 9.375 30.625C6.45833 27.7083 5 24.1667 5 20C5 15.8333 6.45833 12.2917 9.375 9.375C12.2917 6.45833 15.8333 5 20 5C20.2222 5 20.4583 5.00694 20.7083 5.02083C20.9583 5.03472 21.2778 5.05556 21.6667 5.08333C20.6667 5.97222 19.8889 7.06944 19.3333 8.375C18.7778 9.68056 18.5 11.0556 18.5 12.5C18.5 15 19.375 17.125 21.125 18.875C22.875 20.625 25 21.5 27.5 21.5C28.9444 21.5 30.3194 21.2431 31.625 20.7292C32.9306 20.2153 34.0278 19.5 34.9167 18.5833C34.9444 18.9167 34.9653 19.1875 34.9792 19.3958C34.9931 19.6042 35 19.8056 35 20C35 24.1667 33.5417 27.7083 30.625 30.625C27.7083 33.5417 24.1667 35 20 35ZM20 32.5C23.0278 32.5 25.6667 31.5625 27.9167 29.6875C30.1667 27.8125 31.5694 25.6111 32.125 23.0833C31.4306 23.3889 30.6875 23.6181 29.8958 23.7708C29.1042 23.9236 28.3056 24 27.5 24C24.3056 24 21.5903 22.8819 19.3542 20.6458C17.1181 18.4097 16 15.6944 16 12.5C16 11.8333 16.0694 11.1181 16.2083 10.3542C16.3472 9.59028 16.5972 8.72222 16.9583 7.75C14.2361 8.5 11.9792 10.0208 10.1875 12.3125C8.39583 14.6042 7.5 17.1667 7.5 20C7.5 23.4722 8.71528 26.4236 11.1458 28.8542C13.5764 31.2847 16.5278 32.5 20 32.5Z" fill="black"/>
</svg>
