<svg width="24" height="24" viewBox="0 0 24 24" xmlns="http://www.w3.org/2000/svg">
  <path
    d="M12 20.025C14.2167 18.0083 15.8542 16.1792 16.9125 14.5375C17.9708 12.8958 18.5 11.45 18.5 10.2C18.5 8.23683 17.8726 6.62938 16.6177 5.37763C15.3629 4.12588 13.8236 3.5 12 3.5C10.1764 3.5 8.63715 4.12588 7.3823 5.37763C6.12743 6.62938 5.5 8.23683 5.5 10.2C5.5 11.45 6.04167 12.8958 7.125 14.5375C8.20833 16.1792 9.83333 18.0083 12 20.025ZM12 22C9.31667 19.7167 7.3125 17.5958 5.9875 15.6375C4.6625 13.6792 4 11.8667 4 10.2C4 7.7 4.80417 5.70833 6.4125 4.225C8.02083 2.74167 9.88333 2 12 2C14.1167 2 15.9792 2.74167 17.5875 4.225C19.1958 5.70833 20 7.7 20 10.2C20 11.8667 19.3375 13.6792 18.0125 15.6375C16.6875 17.5958 14.6833 19.7167 12 22ZM9.25 13H10.75V10H13.25V13H14.75V8.375L12 6.55L9.25 8.375V13Z" />
</svg>