<svg width="40" height="40" viewBox="0 0 40 40" fill="none" xmlns="http://www.w3.org/2000/svg">
<path d="M20 25.8333C21.6111 25.8333 22.9861 25.2639 24.125 24.125C25.2639 22.9861 25.8333 21.6111 25.8333 20C25.8333 18.3889 25.2639 17.0139 24.125 15.875C22.9861 14.7361 21.6111 14.1667 20 14.1667C18.3889 14.1667 17.0139 14.7361 15.875 15.875C14.7361 17.0139 14.1667 18.3889 14.1667 20C14.1667 21.6111 14.7361 22.9861 15.875 24.125C17.0139 25.2639 18.3889 25.8333 20 25.8333ZM20 28.3333C17.6944 28.3333 15.7292 27.5208 14.1042 25.8958C12.4792 24.2708 11.6667 22.3056 11.6667 20C11.6667 17.6944 12.4792 15.7292 14.1042 14.1042C15.7292 12.4792 17.6944 11.6667 20 11.6667C22.3056 11.6667 24.2708 12.4792 25.8958 14.1042C27.5208 15.7292 28.3333 17.6944 28.3333 20C28.3333 22.3056 27.5208 24.2708 25.8958 25.8958C24.2708 27.5208 22.3056 28.3333 20 28.3333ZM2.91667 21.25C2.55555 21.25 2.25694 21.1319 2.02083 20.8958C1.78472 20.6597 1.66667 20.3611 1.66667 20C1.66667 19.6389 1.78472 19.3403 2.02083 19.1042C2.25694 18.8681 2.55555 18.75 2.91667 18.75H7.08333C7.44444 18.75 7.74306 18.8681 7.97917 19.1042C8.21528 19.3403 8.33333 19.6389 8.33333 20C8.33333 20.3611 8.21528 20.6597 7.97917 20.8958C7.74306 21.1319 7.44444 21.25 7.08333 21.25H2.91667ZM32.9167 21.25C32.5556 21.25 32.2569 21.1319 32.0208 20.8958C31.7847 20.6597 31.6667 20.3611 31.6667 20C31.6667 19.6389 31.7847 19.3403 32.0208 19.1042C32.2569 18.8681 32.5556 18.75 32.9167 18.75H37.0833C37.4444 18.75 37.7431 18.8681 37.9792 19.1042C38.2153 19.3403 38.3333 19.6389 38.3333 20C38.3333 20.3611 38.2153 20.6597 37.9792 20.8958C37.7431 21.1319 37.4444 21.25 37.0833 21.25H32.9167ZM20 8.33333C19.6389 8.33333 19.3403 8.21528 19.1042 7.97917C18.8681 7.74306 18.75 7.44444 18.75 7.08333V2.91667C18.75 2.55556 18.8681 2.25694 19.1042 2.02083C19.3403 1.78472 19.6389 1.66667 20 1.66667C20.3611 1.66667 20.6597 1.78472 20.8958 2.02083C21.1319 2.25694 21.25 2.55556 21.25 2.91667V7.08333C21.25 7.44444 21.1319 7.74306 20.8958 7.97917C20.6597 8.21528 20.3611 8.33333 20 8.33333ZM20 38.3333C19.6389 38.3333 19.3403 38.2153 19.1042 37.9792C18.8681 37.7431 18.75 37.4444 18.75 37.0833V32.9167C18.75 32.5556 18.8681 32.2569 19.1042 32.0208C19.3403 31.7847 19.6389 31.6667 20 31.6667C20.3611 31.6667 20.6597 31.7847 20.8958 32.0208C21.1319 32.2569 21.25 32.5556 21.25 32.9167V37.0833C21.25 37.4444 21.1319 37.7431 20.8958 37.9792C20.6597 38.2153 20.3611 38.3333 20 38.3333ZM10 11.75L7.625 9.41667C7.375 9.16667 7.25694 8.86806 7.27083 8.52083C7.28472 8.17361 7.40278 7.875 7.625 7.625C7.875 7.375 8.17361 7.25 8.52083 7.25C8.86806 7.25 9.16667 7.375 9.41667 7.625L11.75 10C11.9722 10.25 12.0833 10.5417 12.0833 10.875C12.0833 11.2083 11.9722 11.4861 11.75 11.7083C11.5278 11.9583 11.2431 12.0833 10.8958 12.0833C10.5486 12.0833 10.25 11.9722 10 11.75ZM30.5833 32.375L28.25 30C28.0278 29.75 27.9167 29.4514 27.9167 29.1042C27.9167 28.7569 28.0417 28.4722 28.2917 28.25C28.5139 28 28.7917 27.875 29.125 27.875C29.4583 27.875 29.75 28 30 28.25L32.375 30.5833C32.625 30.8333 32.7431 31.1319 32.7292 31.4792C32.7153 31.8264 32.5972 32.125 32.375 32.375C32.125 32.625 31.8264 32.75 31.4792 32.75C31.1319 32.75 30.8333 32.625 30.5833 32.375ZM28.25 11.75C28 11.5 27.875 11.2083 27.875 10.875C27.875 10.5417 28 10.25 28.25 10L30.5833 7.625C30.8333 7.375 31.1319 7.25694 31.4792 7.27083C31.8264 7.28472 32.125 7.40278 32.375 7.625C32.625 7.875 32.75 8.17361 32.75 8.52083C32.75 8.86806 32.625 9.16667 32.375 9.41667L30 11.75C29.7778 11.9722 29.4931 12.0833 29.1458 12.0833C28.7986 12.0833 28.5 11.9722 28.25 11.75ZM7.625 32.375C7.375 32.125 7.25 31.8264 7.25 31.4792C7.25 31.1319 7.375 30.8333 7.625 30.5833L10 28.25C10.25 28 10.5417 27.875 10.875 27.875C11.2083 27.875 11.5 28 11.75 28.25C12 28.5 12.125 28.7917 12.125 29.125C12.125 29.4583 12 29.75 11.75 30L9.41667 32.375C9.16667 32.625 8.86806 32.7431 8.52083 32.7292C8.17361 32.7153 7.875 32.5972 7.625 32.375Z" fill="black"/>
</svg>
